<svg xmlns="http://www.w3.org/2000/svg" xmlns:xlink="http://www.w3.org/1999/xlink" width="500" zoomAndPan="magnify" viewBox="0 0 375 374.999991" height="500" preserveAspectRatio="xMidYMid meet" version="1.0"><path fill="#ffffff" d="M 187.5 0 C 84.375 0 0 84.375 0 187.5 C 0 290.625 84.375 375 187.5 375 C 290.625 375 375 290.625 375 187.5 C 375 84.375 290.625 0 187.5 0 Z M 281.25 203.125 L 281.25 234.375 L 215.625 187.5 L 281.25 140.625 L 281.25 171.875 L 328.125 171.875 L 328.125 203.125 Z M 93.75 171.875 L 93.75 140.625 L 159.375 187.5 L 93.75 234.375 L 93.75 203.125 L 46.875 203.125 L 46.875 171.875 Z M 171.875 93.75 L 140.625 93.75 L 187.5 28.125 L 234.375 93.75 L 203.125 93.75 L 203.125 140.625 L 171.875 140.625 Z M 203.125 281.25 L 234.375 281.25 L 187.5 346.875 L 140.625 281.25 L 171.875 281.25 L 171.875 234.375 L 203.125 234.375 Z M 203.125 281.25 " fill-opacity="1" fill-rule="nonzero"/></svg>